<?xml version="1.0" standalone="no"?>
<!DOCTYPE svg PUBLIC "-//W3C//DTD SVG 20010904//EN"
 "http://www.w3.org/TR/2001/REC-SVG-20010904/DTD/svg10.dtd">
<svg version="1.0" xmlns="http://www.w3.org/2000/svg"
 width="4221.000000pt" height="2250.000000pt" viewBox="0 0 4221.000000 2250.000000"
 preserveAspectRatio="xMidYMid meet">

<g transform="translate(0.000000,2250.000000) scale(0.100000,-0.100000)"
fill="#000000" stroke="none">
<path d="M14987 15323 c-4 -4 -31 -10 -60 -15 -91 -15 -142 -25 -157 -31 -17
-7 -60 -17 -108 -24 -30 -5 -31 -6 -15 -19 10 -7 30 -14 45 -14 15 0 30 -4 33
-10 3 -5 17 -10 30 -10 13 0 34 -4 47 -9 13 -5 43 -14 68 -21 45 -12 177 -52
236 -70 17 -6 38 -10 47 -10 9 0 17 -4 17 -10 0 -5 12 -10 26 -10 15 0 55 -9
90 -20 35 -11 93 -29 128 -40 35 -11 73 -20 84 -20 12 0 24 -4 27 -10 3 -5 19
-10 35 -10 16 0 32 -4 35 -10 3 -5 19 -10 35 -10 16 0 32 -4 35 -10 3 -5 19
-10 36 -10 16 0 29 -4 29 -10 0 -5 14 -10 30 -10 17 0 38 -4 48 -9 9 -5 37
-14 62 -21 25 -6 73 -20 106 -31 34 -10 71 -19 82 -19 11 0 28 -7 37 -16 8 -9
22 -14 29 -11 10 4 13 -2 12 -19 -1 -24 -2 -25 -66 -18 -53 5 -104 -2 -285
-37 -120 -23 -215 -44 -210 -45 92 -24 532 -158 539 -164 10 -10 7 -11 -279
-86 -115 -30 -221 -53 -235 -51 -14 2 -152 46 -308 98 l-282 94 -348 -69
c-191 -38 -349 -71 -351 -73 -9 -7 10 -15 180 -72 96 -33 314 -108 484 -166
171 -59 348 -119 395 -135 47 -16 171 -58 275 -95 105 -36 255 -88 335 -115
136 -46 404 -138 775 -266 88 -31 186 -64 217 -74 134 -44 140 -38 -128 -125
-131 -42 -264 -85 -295 -96 -84 -29 -78 -30 -269 41 -47 18 -96 35 -110 40
-14 5 -63 22 -110 40 -47 17 -159 59 -250 92 -193 70 -225 81 -720 263 -206
76 -422 155 -480 175 -58 21 -143 53 -190 70 -47 18 -96 35 -110 40 -14 5 -63
23 -110 40 -47 17 -114 42 -150 55 -36 13 -102 37 -147 54 -46 17 -119 44
-163 60 -44 17 -85 33 -91 36 -11 7 -689 -126 -689 -135 0 -3 28 -16 63 -29
69 -27 475 -186 817 -321 124 -49 718 -282 1320 -518 2242 -880 2503 -983
2517 -990 8 -5 -145 -72 -397 -175 l-409 -167 -708 310 c-682 300 -940 413
-1218 535 -71 32 -220 97 -330 145 -110 48 -661 290 -1225 538 -564 247 -1064
466 -1111 487 l-86 37 -891 -178 c-490 -98 -888 -182 -886 -186 3 -4 46 -28
97 -52 131 -62 407 -196 652 -316 116 -56 260 -126 320 -155 61 -29 223 -108
360 -175 138 -67 300 -146 360 -175 61 -29 200 -96 310 -150 110 -54 272 -132
360 -175 255 -123 453 -220 700 -340 127 -62 271 -131 320 -155 50 -23 209
-102 355 -175 146 -73 405 -200 575 -282 490 -238 637 -309 1180 -573 281
-136 598 -290 705 -343 107 -52 265 -128 350 -169 85 -42 227 -110 315 -153
88 -43 249 -121 358 -174 110 -53 200 -96 202 -96 4 0 226 102 630 290 121 56
339 157 485 225 146 67 459 212 695 322 237 110 581 270 765 356 184 85 432
200 550 255 118 55 406 188 640 297 234 108 547 253 695 322 149 69 371 174
495 233 124 59 251 119 282 134 32 14 91 41 130 60 40 19 136 63 213 99 77 36
183 85 235 110 52 24 145 67 205 95 61 28 159 73 218 101 60 28 110 51 111 51
2 0 59 26 127 59 68 32 156 73 194 91 68 31 536 248 685 318 95 44 189 87 260
119 159 73 264 126 255 129 -5 2 -296 60 -645 130 -349 69 -1467 292 -2484
495 -1016 203 -1863 369 -1881 369 -19 0 -45 -4 -60 -10 -20 -7 -51 -4 -128
15 -56 13 -250 58 -432 100 -181 42 -386 90 -455 106 -291 68 -585 130 -780
165 -63 12 -80 8 -117 -28 -37 -36 -40 -53 -17 -86 8 -12 13 -30 10 -40 -5
-16 100 -44 1003 -267 555 -138 1004 -253 998 -256 -7 -4 -101 -35 -210 -70
l-197 -63 -263 67 c-144 37 -401 103 -572 147 -1043 270 -1402 358 -1435 354
-27 -3 -31 -2 -15 5 l20 10 -20 1 c-11 1 -78 1 -150 0 -88 -1 -151 4 -195 14
-86 21 -139 20 -192 -3 -57 -24 -72 -43 -64 -81 4 -21 2 -30 -8 -30 -7 0 -28
-3 -46 -7 -24 -4 -31 -3 -26 5 5 9 -6 12 -38 12 -25 0 -48 5 -51 10 -3 6 -21
10 -40 10 -19 0 -37 5 -40 10 -3 6 -19 10 -35 10 -16 0 -32 5 -35 10 -3 6 -19
10 -36 10 -16 0 -37 4 -47 9 -9 5 -37 14 -62 21 -25 6 -74 20 -110 30 -36 10
-92 26 -125 34 -33 9 -61 20 -63 26 -2 5 -25 10 -51 10 -26 0 -51 3 -55 7 -3
4 -14 8 -24 9 -27 4 -105 25 -127 34 -21 9 -59 18 -113 27 -18 3 -35 9 -38 14
-3 5 -18 9 -34 9 -16 0 -31 4 -34 9 -3 5 -20 11 -38 14 -54 9 -92 18 -113 27
-11 5 -31 11 -45 14 -14 2 -43 10 -65 16 -22 6 -58 16 -80 21 -69 17 -109 27
-150 39 -22 6 -56 15 -75 20 -19 5 -51 13 -70 19 -19 5 -69 19 -110 30 -41 10
-102 27 -135 36 -33 10 -88 25 -122 34 -34 9 -66 20 -69 24 -4 4 -20 7 -35 7
-15 0 -31 5 -34 10 -7 11 -148 14 -158 3z"/>
<path d="M18028 14818 c5 -5 16 -8 23 -6 8 3 3 7 -10 11 -17 4 -21 3 -13 -5z"/>
<path d="M25390 12630 c-119 -17 -263 -84 -338 -158 -153 -151 -195 -376 -104
-562 15 -30 33 -64 42 -75 33 -42 124 -125 151 -137 16 -7 29 -16 29 -20 0 -5
9 -8 20 -8 11 0 20 -4 20 -10 0 -5 7 -10 15 -10 8 0 23 -4 33 -9 50 -25 107
-34 222 -34 130 0 193 12 275 56 79 42 95 52 95 59 0 4 5 8 11 8 17 0 108 98
137 148 88 154 92 299 13 452 -49 97 -150 194 -259 249 -84 42 -256 67 -362
51z m198 -165 c2 -22 -1 -77 -7 -122 -6 -46 -16 -120 -22 -165 -20 -163 -12
-148 -74 -148 -30 0 -57 5 -61 12 -4 6 -11 48 -16 92 -4 45 -13 124 -19 176
-6 52 -13 119 -16 148 l-5 53 109 -3 108 -3 3 -40z m-13 -505 c12 -10 16 -29
14 -79 -2 -92 -12 -101 -109 -101 -50 0 -81 4 -87 13 -13 15 -14 158 -2 173
13 16 164 11 184 -6z"/>
<path d="M11890 11263 c-70 -10 -240 -77 -240 -95 0 -4 -4 -8 -10 -8 -9 0 -26
-13 -69 -50 -61 -54 -119 -161 -134 -247 -14 -76 -14 -77 -3 -152 25 -168 169
-324 361 -389 42 -15 153 -32 203 -32 64 0 252 54 252 72 0 4 9 8 20 8 11 0
20 5 20 10 0 6 5 10 10 10 26 0 160 134 160 160 0 6 3 10 8 10 8 0 25 39 40
95 18 69 23 148 12 205 -6 30 -12 65 -14 77 -11 61 -79 149 -172 224 -35 27
-126 68 -189 85 -58 15 -204 25 -255 17z m187 -195 c-5 -75 -14 -159 -35 -318
l-7 -55 -46 -3 c-30 -2 -50 2 -57 11 -11 13 -21 80 -42 282 -5 50 -12 100 -15
112 -11 47 0 53 107 53 l100 0 -5 -82z m1 -509 c3 -89 4 -89 -114 -89 -56 0
-73 3 -78 16 -8 22 -8 139 1 148 4 4 48 5 98 4 l90 -3 3 -76z"/>
<path d="M30235 10679 c-49 -5 -124 -16 -165 -24 -106 -22 -271 -75 -265 -86
4 -5 0 -6 -8 -3 -15 5 -196 -83 -258 -127 -93 -64 -138 -102 -133 -110 3 -5 1
-8 -5 -7 -17 5 -150 -132 -211 -218 -140 -197 -208 -395 -217 -629 -8 -213 23
-356 119 -550 60 -122 135 -223 245 -332 106 -105 343 -265 410 -276 10 -2 36
-13 58 -24 38 -20 140 -54 175 -58 8 -1 22 -5 30 -8 39 -14 116 -27 233 -38
215 -22 462 11 672 89 96 36 254 115 283 142 12 11 24 20 27 20 13 0 90 63 87
72 -1 5 2 7 7 4 13 -8 82 55 74 67 -3 6 -2 7 4 4 13 -8 115 96 111 114 -2 8 2
13 8 12 27 -5 193 274 178 299 -5 7 -2 8 6 3 10 -6 12 -4 7 8 -3 10 -3 17 1
17 10 0 48 128 63 210 17 92 15 290 -4 385 -28 144 -103 326 -181 442 -101
149 -278 310 -451 410 -256 148 -603 222 -900 192z m382 -363 c3 -2 0 -44 -6
-93 -6 -48 -33 -281 -61 -518 -28 -236 -53 -440 -56 -452 -4 -22 -8 -23 -125
-23 -66 0 -118 3 -115 8 2 4 -8 113 -24 242 -74 613 -90 758 -90 800 l0 45
236 -2 c130 -1 239 -4 241 -7z m-27 -1456 l0 -190 -205 0 c-113 0 -208 -1
-212 -2 -8 -3 -17 358 -10 377 3 6 77 9 216 7 l211 -3 0 -189z"/>
<path d="M22535 10055 c-134 -25 -277 -82 -398 -159 -52 -33 -176 -139 -189
-161 -4 -6 -23 -29 -42 -50 -19 -21 -33 -41 -31 -46 3 -4 -1 -9 -9 -12 -20 -8
-92 -162 -118 -252 -32 -113 -32 -306 0 -418 42 -148 112 -267 225 -383 76
-79 212 -178 229 -167 6 3 8 1 5 -4 -4 -6 18 -22 51 -36 273 -122 552 -139
834 -51 101 32 240 102 231 117 -3 5 -2 7 4 4 6 -4 30 7 54 23 55 37 115 90
103 91 -5 0 1 4 12 9 33 13 143 165 186 256 61 131 73 189 73 354 0 124 -3
156 -24 220 -106 339 -385 580 -766 661 -106 22 -320 24 -430 4z m385 -264 c0
-25 -68 -615 -85 -738 l-6 -43 -84 0 -83 0 -6 38 c-12 75 -86 720 -86 745 l0
27 175 0 175 0 0 -29z m-18 -1025 c2 -68 2 -131 0 -139 -3 -13 -25 -16 -142
-19 -153 -3 -176 0 -174 22 1 8 2 70 3 138 l1 122 154 0 155 0 3 -124z"/>
<path d="M15058 7425 c-2 -2 -37 -6 -78 -10 -114 -9 -138 -13 -235 -45 -188
-61 -352 -160 -486 -293 -104 -102 -114 -114 -174 -207 -60 -92 -119 -233
-142 -343 -20 -96 -23 -307 -4 -377 6 -25 13 -56 16 -70 16 -107 161 -374 233
-431 14 -10 21 -19 16 -19 -14 0 92 -96 175 -158 87 -64 277 -166 298 -158 8
3 11 1 8 -4 -3 -6 -4 -10 -1 -10 3 0 44 -11 91 -25 195 -56 447 -73 615 -40
41 8 90 17 109 20 92 15 320 110 352 147 9 10 19 18 23 18 42 0 336 270 336
309 0 5 4 11 9 13 12 4 92 133 123 198 41 84 78 240 78 324 -1 60 -14 172 -37
304 -3 18 -9 35 -14 38 -5 3 -9 16 -9 30 0 13 -4 24 -8 24 -5 0 -9 7 -9 15 0
19 -91 199 -113 223 -8 9 -27 33 -40 52 -32 47 -46 60 -54 53 -3 -4 -6 -1 -6
6 0 17 -81 102 -92 95 -5 -3 -7 0 -6 7 2 7 -7 18 -19 24 -13 5 -23 13 -23 17
0 5 -7 8 -16 8 -8 0 -13 4 -9 9 3 5 -4 12 -15 16 -11 3 -26 12 -33 18 -28 26
-202 117 -223 117 -7 0 -14 5 -14 11 0 5 -4 8 -8 5 -5 -3 -20 1 -33 8 -37 19
-173 54 -259 66 -73 11 -315 22 -322 15z m315 -454 c-7 -58 -31 -259 -53 -446
-22 -187 -42 -351 -45 -365 l-5 -25 -103 5 -102 5 -16 130 c-9 72 -17 130 -18
130 -1 0 -4 30 -6 67 -3 37 -18 176 -35 309 -16 133 -30 261 -30 285 l0 44
208 2 c198 3 207 2 212 -16 3 -11 0 -67 -7 -125z m-13 -1151 l0 -170 -185 0
c-102 0 -188 0 -192 0 -5 0 -7 7 -7 15 1 8 2 85 3 170 l1 155 190 0 190 0 0
-170z"/>
<path d="M23813 4170 c-257 -76 -423 -306 -385 -535 30 -185 177 -345 371
-405 328 -102 680 92 734 405 40 233 -137 471 -400 539 -83 22 -240 20 -320
-4z m266 -152 c0 -18 -10 -116 -22 -218 l-23 -185 -49 0 -49 0 -22 185 c-13
102 -23 200 -23 218 l-1 32 95 0 95 0 -1 -32z m-9 -553 l0 -75 -85 0 -85 0 0
75 0 75 85 0 85 0 0 -75z"/>
</g>
</svg>
